<svg xmlns="http://www.w3.org/2000/svg" viewBox="0 0 382.21 411.53"><defs><style>.cls-1{fill:none;stroke:#000;stroke-miterlimit:10;stroke-width:50px;}</style></defs><title>Ativo 18</title><g id="Camada_2" data-name="Camada 2"><g id="Camada_1-2" data-name="Camada 1"><path class="cls-1" d="M183.85,380.35h0c.28-.54,13.46-26.32,16.25-45,2-13.13.15-31.87-16.25-56.61L89.26,146.27a28.49,28.49,0,0,1,6.87-39.91L205.31,30.15A28.42,28.42,0,0,1,244.82,37C252.6,48,262,61.16,272.75,75.83c60.54,82.91,83.58,106.3,84.4,147,.19,9.07.69,33.85-13.9,57.38-6.41,10.33-15.62,18.88-34.09,35.93-13.45,12.42-25.4,22-34.09,28.56a333.62,333.62,0,0,1-45.93,26.56c-28.1,13.36-41.29,14.74-46.2,15.08A104.38,104.38,0,0,1,153.81,384c-34.15-7.67-56.44-31.65-65.5-42.75-.41-.49-.75-.94-1.12-1.46l-56.8-78.66A28.49,28.49,0,0,1,37,221.24l67.08-47.74"/></g></g></svg>