<svg xmlns="http://www.w3.org/2000/svg" viewBox="0 0 818.6 411.53"><defs><style>.cls-1{fill:none;stroke:#000;stroke-miterlimit:10;stroke-width:50px;}</style></defs><title>Ativo 17</title><g id="Camada_2" data-name="Camada 2"><g id="Camada_1-2" data-name="Camada 1"><path class="cls-1" d="M183.85,390.63h0c.28-.55,13.46-26.33,16.25-45,2-13.13.15-31.86-16.25-56.61L89.26,156.54a28.48,28.48,0,0,1,6.87-39.9L205.31,40.42a28.43,28.43,0,0,1,39.51,6.85c7.78,11,17.21,24.17,27.93,38.84,60.54,82.9,83.58,106.29,84.4,147,.19,9.07.69,33.85-13.9,57.37-6.41,10.34-15.62,18.89-34.09,35.94-13.45,12.41-25.4,22-34.09,28.56a333.38,333.38,0,0,1-45.93,26.55c-28.1,13.37-41.29,14.74-46.2,15.09a104.38,104.38,0,0,1-29.13-2.34c-34.15-7.67-56.44-31.66-65.5-42.75-.41-.49-.75-.94-1.12-1.46l-56.8-78.67A28.47,28.47,0,0,1,37,231.52l67.08-47.74" transform="translate(0 -10.28)"/><path d="M452.56,273.59C462.89,280,483,287,499.76,287c20.58,0,29.77-8.59,29.77-20.66,0-12.46-7.63-18.79-30.37-26.83C463,227.2,447.87,207.59,448,185.79c0-32.36,27-57.58,70.2-57.58,20.38,0,38.21,5.06,49.06,11L558,171.86c-7.78-4.39-22.75-10.58-39.12-10.58-16.64,0-25.9,8.16-25.9,19.48,0,11.69,8.91,17.3,32.29,25.78,33.66,11.84,49.2,28.92,49.36,56,0,33.56-26.28,57.77-75.13,57.77-22.38,0-42.74-5.33-56.35-12.89Z" transform="translate(0 -10.28)"/><path d="M626.05,237.25c1.24,33.35,27.19,47.92,57.13,47.92,21.51,0,36.91-3.35,51.05-8.52l6.92,32c-15.84,6.68-37.8,11.68-64.65,11.68-60,0-95.23-36.92-95.23-93.31,0-50.79,31-98.84,90.46-98.84,60.13,0,79.71,49.18,79.71,89.5a97.26,97.26,0,0,1-1.65,19.54Zm81.35-32.43c.2-17-7.25-44.85-38.58-44.85C640,160,628.05,186,626,204.82Z" transform="translate(0 -10.28)"/><path d="M818.6,80.86c0,13.89-10.09,25.1-26.66,25.1-15.51,0-25.68-11.21-25.63-25.1,0-14.18,10.48-25.15,26.19-25.15C808.38,55.71,818.44,66.56,818.6,80.86ZM769.05,316.39v-184h46.81v184Z" transform="translate(0 -10.28)"/></g></g></svg>